<svg width="40" height="40" fill="none" xmlns="http://www.w3.org/2000/svg"><path fill-rule="evenodd" clip-rule="evenodd" d="M20 0c11.046 0 20 8.954 20 20s-8.954 20-20 20S0 31.046 0 20 8.954 0 20 0z" fill="#737373"/><path fill-rule="evenodd" clip-rule="evenodd" d="M26.1 20.934c-1.458 1.572-5.426 4.232-7.456 5.086-.324.136-1.15.424-1.328.428-.378.012-.742-.2-.918-.54-.068-.132-.268-.994-.332-1.378-.19-1.168-.288-2.982-.286-4.806-.002-1.914.104-3.814.316-4.97.056-.312.22-1.03.268-1.146a.995.995 0 01.452-.492.989.989 0 01.5-.12c.178.004.902.258 1.15.356 1.956.76 6.094 3.516 7.614 5.136.136.146.51.538.572.618.142.18.212.398.212.618a.99.99 0 01-.19.586c-.066.09-.448.49-.574.624z" fill="#fff"/></svg>