<svg width="34" height="24" fill="none" xmlns="http://www.w3.org/2000/svg"><path fill-rule="evenodd" clip-rule="evenodd" d="M14.571 3.264c-2.381.768-4.277 1.92-5.687 3.456-1.41 1.536-1.959 3.52-1.645 5.952.69.576 1.66 1.168 2.914 1.776 1.253.608 2.35 1.072 3.29 1.392.251 1.024.251 2.016 0 2.976a7.066 7.066 0 01-1.222 2.544 7.689 7.689 0 01-1.974 1.824c-.752.48-1.441.752-2.068.816-2.194-.192-4.105-1.024-5.735-2.496S0 17.92 0 15.168c0-1.6.266-3.2.8-4.8a14.983 14.983 0 012.396-4.464C4.262 4.528 5.61 3.312 7.24 2.256 8.869 1.2 10.81.448 13.067 0l1.504 3.264zm19.429 0c-2.381.768-4.277 1.92-5.687 3.456-1.41 1.536-1.959 3.52-1.646 5.952.69.576 1.661 1.168 2.915 1.776 1.253.608 2.35 1.072 3.29 1.392.25 1.024.25 2.016 0 2.976a7.066 7.066 0 01-1.222 2.544 7.687 7.687 0 01-1.974 1.824c-.752.48-1.442.752-2.068.816-2.194-.192-4.105-1.024-5.735-2.496s-2.444-3.584-2.444-6.336c0-1.6.266-3.2.799-4.8a14.983 14.983 0 012.397-4.464c1.066-1.376 2.413-2.592 4.042-3.648C28.297 1.2 30.24.448 32.496 0L34 3.264z" fill="#06C"/></svg>