<svg width="15" height="11" fill="none" xmlns="http://www.w3.org/2000/svg"><path d="M15 1.66a5.08 5.08 0 00-2.28 1.428c-.612.669-.98 1.35-1.102 2.045.196.412.514.747.955 1.004.466.231.907.424 1.324.579.025.463-.061.939-.257 1.428a5.92 5.92 0 01-.772 1.312c-.319.386-.674.72-1.066 1.004-.368.283-.711.463-1.03.54a4.02 4.02 0 01-2.28-.85c-.637-.514-.955-1.324-.955-2.43 0-.927.208-1.815.625-2.664A10.08 10.08 0 019.816 2.74a10.437 10.437 0 012.243-1.736C12.892.514 13.7.18 14.485 0L15 1.66zm-7.537 0a5.08 5.08 0 00-2.28 1.428c-.612.669-.98 1.35-1.102 2.045.196.412.515.747.956 1.004.465.231.907.424 1.323.579.025.463-.061.939-.257 1.428a5.89 5.89 0 01-.772 1.312c-.319.386-.674.72-1.066 1.004-.368.283-.711.463-1.03.54a4.02 4.02 0 01-2.28-.85C.32 9.637 0 8.827 0 7.72c0-.927.208-1.815.625-2.664A10.08 10.08 0 012.279 2.74a10.437 10.437 0 012.243-1.736C5.355.514 6.164.18 6.95 0l.514 1.66z" fill="#42BAE3"/></svg>