<svg width="49" height="51" fill="none" xmlns="http://www.w3.org/2000/svg"><g filter="url(#filter0_d)" fill="#fff"><path fill-rule="evenodd" clip-rule="evenodd" d="M26.453 20.414h-4.529v-4.528a.755.755 0 00-1.51 0v4.528h-4.527a.755.755 0 000 1.51h4.528v4.528a.755.755 0 001.51 0v-4.528h4.528a.755.755 0 000-1.51z"/><path fill-rule="evenodd" clip-rule="evenodd" d="M32.386 32.354L43.6 44.017a.755.755 0 01-1.088 1.046L31.27 33.37a15.776 15.776 0 01-10.1 3.647c-8.74 0-15.85-7.11-15.85-15.849 0-8.74 7.11-15.85 15.85-15.85 8.739.001 15.848 7.11 15.848 15.85a15.8 15.8 0 01-4.632 11.185zM21.169 6.829c-7.907 0-14.34 6.433-14.34 14.34s6.433 14.34 14.34 14.34 14.34-6.433 14.34-14.34-6.433-14.34-14.34-14.34z"/><path d="M43.6 44.017l.722-.693-.722.693zM32.386 32.353l-.708-.706-.692.693.68.706.72-.693zm11.193 12.73l.692.722.002-.002-.694-.72zm-1.067-.021l.723-.692-.002-.002-.721.694zM31.27 33.37l.721-.693-.644-.67-.715.593.638.77zm13.051 9.952L33.107 31.661l-1.442 1.386L42.88 44.71l1.441-1.387zm-.048 2.481a1.755 1.755 0 00.049-2.48l-1.443 1.385a.244.244 0 01.007-.346l1.387 1.441zm-1.217.49c.438 0 .876-.164 1.215-.488l-1.384-1.444a.247.247 0 01.17-.068v2zm-1.267-.54c.346.362.81.54 1.267.54v-2a.25.25 0 01.179.078l-1.446 1.382zm-11.24-11.69l11.242 11.692 1.442-1.386L31.99 32.678l-1.441 1.386zm-9.38 3.954c4.08 0 7.824-1.459 10.74-3.877l-1.277-1.54a14.776 14.776 0 01-9.463 3.417v2zM4.32 21.17c0 9.292 7.557 16.85 16.85 16.85v-2c-8.188 0-14.85-6.663-14.85-14.85h-2zM21.17 4.32c-9.293 0-16.85 7.557-16.85 16.849h2c0-8.187 6.662-14.85 14.85-14.85V4.32zm16.848 16.849c0-9.292-7.557-16.849-16.849-16.849v2c8.188 0 14.85 6.662 14.85 14.849h2zM33.094 33.06a16.8 16.8 0 004.924-11.891h-2c0 4.085-1.658 7.79-4.34 10.479l1.416 1.412zM7.83 21.169c0-7.355 5.985-13.34 13.34-13.34v-2c-8.46 0-15.34 6.88-15.34 15.34h2zm13.34 13.34c-7.356 0-13.34-5.985-13.34-13.34h-2c0 8.46 6.88 15.34 15.34 15.34v-2zm13.339-13.34c0 7.355-5.985 13.34-13.34 13.34v2c8.46 0 15.34-6.88 15.34-15.34h-2zm-13.34-13.34c7.355 0 13.34 5.985 13.34 13.34h2c0-8.46-6.88-15.34-15.34-15.34v2z"/></g><defs><filter id="filter0_d" x=".32" y=".32" width="48.49" height="49.974" filterUnits="userSpaceOnUse" color-interpolation-filters="sRGB"><feFlood flood-opacity="0" result="BackgroundImageFix"/><feColorMatrix in="SourceAlpha" values="0 0 0 0 0 0 0 0 0 0 0 0 0 0 0 0 0 0 127 0" result="hardAlpha"/><feOffset/><feGaussianBlur stdDeviation="2"/><feColorMatrix values="0 0 0 0 0 0 0 0 0 0 0 0 0 0 0 0 0 0 0.2 0"/><feBlend in2="BackgroundImageFix" result="effect1_dropShadow"/><feBlend in="SourceGraphic" in2="effect1_dropShadow" result="shape"/></filter></defs></svg>